<mxfile host="Electron" modified="2024-07-31T06:28:43.130Z" agent="Mozilla/5.0 (Windows NT 10.0; Win64; x64) AppleWebKit/537.36 (KHTML, like Gecko) draw.io/22.0.3 Chrome/114.0.5735.289 Electron/25.8.4 Safari/537.36" etag="NcOzQDyFdCV1IYNgiNOT" version="22.0.3" type="device">
  <diagram name="Page 1" id="Page-1">
    <mxGraphModel dx="1084" dy="856" grid="1" gridSize="10" guides="1" tooltips="1" connect="1" arrows="1" fold="1" page="1" pageScale="1" pageWidth="700" pageHeight="70" math="0" shadow="0">
      <root>
        <mxCell id="0" />
        <mxCell id="1" parent="0" />
        <UserObject label="" tags="Lien" id="48">
          <mxCell style="vsdxID=78;edgeStyle=none;startArrow=none;endArrow=block;startSize=5;endSize=5;strokeColor=#000000;spacingTop=0;spacingBottom=0;spacingLeft=0;spacingRight=0;verticalAlign=middle;html=1;labelBackgroundColor=#ffffff;rounded=0;" parent="1" source="TPUZ5BMSqeOp9fL3mGmU-56" target="TPUZ5BMSqeOp9fL3mGmU-54" edge="1">
            <mxGeometry relative="1" as="geometry">
              <mxPoint as="offset" />
              <Array as="points" />
              <mxPoint x="596" y="141.18589743589746" as="targetPoint" />
              <mxPoint x="547" y="141.5" as="sourcePoint" />
            </mxGeometry>
          </mxCell>
        </UserObject>
        <UserObject label="" tags="Lien" id="49">
          <mxCell style="vsdxID=77;edgeStyle=none;startArrow=none;endArrow=block;startSize=5;endSize=5;strokeColor=#000000;spacingTop=0;spacingBottom=0;spacingLeft=0;spacingRight=0;verticalAlign=middle;html=1;labelBackgroundColor=#ffffff;rounded=0;" parent="1" source="TPUZ5BMSqeOp9fL3mGmU-53" target="TPUZ5BMSqeOp9fL3mGmU-56" edge="1">
            <mxGeometry relative="1" as="geometry">
              <mxPoint as="offset" />
              <Array as="points" />
              <mxPoint x="374" y="141.20422535211264" as="sourcePoint" />
              <mxPoint x="416" y="141.5" as="targetPoint" />
            </mxGeometry>
          </mxCell>
        </UserObject>
        <UserObject label="" tags="Lien" id="50">
          <mxCell style="vsdxID=60;edgeStyle=none;startArrow=none;endArrow=block;startSize=5;endSize=5;strokeColor=#000000;spacingTop=0;spacingBottom=0;spacingLeft=0;spacingRight=0;verticalAlign=middle;html=1;labelBackgroundColor=#ffffff;rounded=0;" parent="1" source="TPUZ5BMSqeOp9fL3mGmU-55" target="TPUZ5BMSqeOp9fL3mGmU-53" edge="1">
            <mxGeometry relative="1" as="geometry">
              <mxPoint x="-1" as="offset" />
              <Array as="points" />
              <mxPoint x="316" y="141" as="targetPoint" />
              <mxPoint x="274" y="141" as="sourcePoint" />
            </mxGeometry>
          </mxCell>
        </UserObject>
        <UserObject label="" tags="Lien" id="51">
          <mxCell style="vsdxID=59;edgeStyle=none;startArrow=none;endArrow=block;startSize=5;endSize=5;strokeColor=#000000;spacingTop=0;spacingBottom=0;spacingLeft=0;spacingRight=0;verticalAlign=middle;html=1;labelBackgroundColor=#ffffff;rounded=0;" parent="1" source="TPUZ5BMSqeOp9fL3mGmU-52" target="TPUZ5BMSqeOp9fL3mGmU-55" edge="1">
            <mxGeometry relative="1" as="geometry">
              <mxPoint x="-1" as="offset" />
              <Array as="points" />
              <mxPoint x="104" y="141" as="sourcePoint" />
              <mxPoint x="143" y="141" as="targetPoint" />
            </mxGeometry>
          </mxCell>
        </UserObject>
        <UserObject label="" tags="Diagramme_de_flux Lien" id="52">
          <mxCell parent="1" vertex="1" visible="0">
            <mxGeometry as="geometry" />
          </mxCell>
        </UserObject>
        <mxCell id="TPUZ5BMSqeOp9fL3mGmU-52" value=".i" style="whiteSpace=wrap;html=1;shape=mxgraph.basic.document;fillColor=#dae8fc;strokeColor=#000000;" parent="1" vertex="1">
          <mxGeometry x="60" y="101" width="60" height="80" as="geometry" />
        </mxCell>
        <mxCell id="TPUZ5BMSqeOp9fL3mGmU-53" value=".s" style="whiteSpace=wrap;html=1;shape=mxgraph.basic.document;fillColor=#ffe6cc;strokeColor=#000000;" parent="1" vertex="1">
          <mxGeometry x="320" y="101" width="60" height="80" as="geometry" />
        </mxCell>
        <mxCell id="TPUZ5BMSqeOp9fL3mGmU-54" value=".o" style="whiteSpace=wrap;html=1;shape=mxgraph.basic.document;fillColor=#d5e8d4;strokeColor=#000000;" parent="1" vertex="1">
          <mxGeometry x="580" y="101" width="60" height="80" as="geometry" />
        </mxCell>
        <mxCell id="TPUZ5BMSqeOp9fL3mGmU-55" value="Compilation&lt;br&gt;&lt;font face=&quot;Lucida Console&quot;&gt;&lt;b&gt;gcc -S&lt;/b&gt;&lt;/font&gt;" style="rounded=0;whiteSpace=wrap;html=1;" parent="1" vertex="1">
          <mxGeometry x="160" y="111" width="120" height="60" as="geometry" />
        </mxCell>
        <mxCell id="TPUZ5BMSqeOp9fL3mGmU-56" value="Assemblage&lt;br&gt;&lt;font face=&quot;Lucida Console&quot;&gt;&lt;b&gt;as&lt;/b&gt;&lt;/font&gt;" style="rounded=0;whiteSpace=wrap;html=1;" parent="1" vertex="1">
          <mxGeometry x="420" y="111" width="120" height="60" as="geometry" />
        </mxCell>
      </root>
    </mxGraphModel>
  </diagram>
</mxfile>
